<?xml version="1.0" encoding="UTF-8"?>
<svg width="155px" height="26px" viewBox="0 0 155 26" version="1.1" xmlns="http://www.w3.org/2000/svg" xmlns:xlink="http://www.w3.org/1999/xlink">
    <!-- Generator: Sketch 48.1 (47250) - http://www.bohemiancoding.com/sketch -->
    <title>epc logo copy</title>
    <desc>Created with Sketch.</desc>
    <defs></defs>
    <g id="latest" stroke="none" stroke-width="1" fill="none" fill-rule="evenodd" transform="translate(-399.000000, -59.000000)">
        <g id="header---1024-copy-16" transform="translate(329.000000, 40.000000)">
            <g id="epc-logo-copy" transform="translate(70.000000, 19.000000)">
                <path d="M0.385255076,12.1188356 L8.21703621,12.1188356 C10.5948872,12.1188356 14.5010905,12.1188356 14.5010905,16.210313 C14.5010905,20.2855234 10.5948872,20.2855234 8.21703621,20.2855234 L3.1312221,20.2855234 L3.1312221,25.4612245 L0.385255076,25.4612245 L0.385255076,12.1188356 L0.385255076,12.1188356 Z M8.81615629,18.0463502 C10.3825125,18.0463502 11.7551234,17.9176295 11.7551234,16.1926316 C11.7551234,14.4867295 10.3825125,14.3580089 8.81615629,14.3580089 L3.1312221,14.3580089 L3.1312221,18.0463502 L8.81615629,18.0463502 L8.81615629,18.0463502 Z" id="Shape" fill="#FFFFFF"></path>
                <path d="M25.9261017,23.86424 C25.9261017,24.5248173 25.9648508,25.1853946 26.119847,25.4612245 L23.6637528,25.4612245 C23.5862546,25.1309359 23.5281311,24.79994 23.5281311,24.4696513 C22.522891,25.0206039 21.0340329,25.7915132 18.9848038,25.7915132 C17.6114477,25.7915132 14.9623533,25.2405606 14.9623533,22.818208 C14.9623533,19.4969327 20.183044,19.0188275 23.5281311,18.8356481 L23.5281311,18.3950275 C23.5281311,17.6432141 22.8127638,17.1113574 20.8402876,17.1113574 C18.6368074,17.1113574 18.1725639,17.8815595 18.0369422,18.4134161 L15.542844,18.4134161 C16.1225896,15.7336223 18.8879311,15.2753202 20.8209131,15.2753202 C25.8299742,15.2753202 25.9261017,17.5873409 25.9261017,18.9452728 L25.9261017,23.86424 L25.9261017,23.86424 Z M23.5288762,20.4870914 C22.1368908,20.5422574 20.9185309,20.7247295 19.7970437,20.9821708 C18.3081856,21.313874 17.6121929,21.7905647 17.5928183,22.65271 C17.5734438,23.4964667 18.1539345,24.0290307 19.3328002,24.0290307 C21.1510253,24.0290307 22.6011343,23.2758028 23.5288762,22.7446533 L23.5288762,20.4870914 L23.5288762,20.4870914 Z" id="Shape" fill="#FFFFFF"></path>
                <path d="M28.052829,15.6049016 L30.4507996,15.6049016 L30.4507996,17.0731656 L30.508178,17.0731656 C31.0305452,16.2654789 32.0745343,15.274613 34.1431379,15.274613 C34.4918795,15.274613 34.7437484,15.274613 34.9941269,15.3113903 L34.9941269,17.7712275 C34.7623777,17.7153542 34.3175087,17.5873409 33.5253885,17.5873409 C30.4701742,17.6050223 30.4701742,19.5330028 30.4507996,20.2296502 L30.4507996,25.4612245 L28.052829,25.4612245 L28.052829,15.6049016 L28.052829,15.6049016 Z" id="Shape" fill="#FFFFFF"></path>
                <path d="M35.8056216,15.9358975 L37.6618506,15.9358975 L37.6618506,12.724247 L40.0598213,12.724247 L40.0598213,15.9358975 L43.6754066,15.9358975 L43.6754066,17.8815595 L40.0598213,17.8815595 L40.0598213,22.395976 C40.0598213,23.0933307 40.3496941,23.845144 41.7416795,23.845144 C42.2059231,23.845144 43.172414,23.7348121 43.7909087,23.5700214 L43.7909087,25.570142 C42.612043,25.7179586 42.0509268,25.7915132 41.200683,25.7915132 C38.9189596,25.7915132 37.6618506,25.0934513 37.6618506,22.9278327 L37.6618506,17.8815595 L35.8056216,17.8815595 L35.8056216,15.9358975 L35.8056216,15.9358975 Z" id="Shape" fill="#FFFFFF"></path>
                <path d="M45.5107708,15.6049016 L47.8699924,15.6049016 L47.8699924,16.8348202 C48.6241087,16.1367583 49.6487233,15.274613 51.756076,15.274613 C53.9222975,15.274613 55.8172755,16.1367583 55.8172755,19.1468409 L55.8172755,25.4612245 L53.4193048,25.4612245 L53.4193048,19.9913048 C53.4193048,18.0456429 52.8008102,17.2195676 51.1949598,17.2195676 C49.2813524,17.2195676 48.5078615,17.9727955 47.9087414,18.6694429 L47.9087414,25.4612245 L45.5107708,25.4612245 L45.5107708,15.6049016 L45.5107708,15.6049016 Z" id="Shape" fill="#FFFFFF"></path>
                <path d="M68.6551371,22.506308 C68.4815115,23.3125801 67.0895261,25.790806 63.2407012,25.790806 C59.5282432,25.790806 57.3046433,23.58841 57.3046433,20.5047728 C57.3046433,17.7153542 59.2383704,15.274613 63.0670756,15.274613 C66.974024,15.3113903 68.8488824,17.6050223 68.8488824,21.1660574 L59.741363,21.1660574 C59.8374905,21.7898574 60.2056065,23.8444368 63.163203,23.955476 C64.6721809,23.955476 65.6774209,23.2758028 66.0254173,22.506308 L68.6551371,22.506308 L68.6551371,22.506308 Z M66.2959155,19.4042821 C65.9285446,17.7344502 64.7295593,17.1113574 63.0096972,17.1113574 C61.7518431,17.1113574 60.3024792,17.513079 59.8188611,19.4042821 L66.2959155,19.4042821 L66.2959155,19.4042821 Z" id="Shape" fill="#FFFFFF"></path>
                <path d="M70.3362502,15.6049016 L72.7342208,15.6049016 L72.7342208,17.0731656 L72.7915992,17.0731656 C73.3147115,16.2654789 74.3579555,15.274613 76.4273043,15.274613 C76.776791,15.274613 77.0264244,15.274613 77.2790384,15.3113903 L77.2790384,17.7712275 C77.0465441,17.7153542 76.6024202,17.5873409 75.8088097,17.5873409 C72.7535954,17.6050223 72.7535954,19.5330028 72.7342208,20.2296502 L72.7342208,25.4612245 L70.3362502,25.4612245 L70.3362502,15.6049016 L70.3362502,15.6049016 Z" id="Shape" fill="#FFFFFF"></path>
                <path d="M94.0611072,20.7070481 C93.790609,22.1937007 92.6691218,25.790806 86.2114419,25.790806 C81.7642421,25.790806 78.2634136,23.4413007 78.2634136,18.5774996 C78.2634136,14.6875903 80.8350099,11.788547 86.4238166,11.788547 C92.7078708,11.788547 93.6363579,15.6600676 93.8487326,16.3758109 L91.1035107,16.3758109 C90.9477693,15.9175089 89.8650311,14.0277202 86.5780676,14.0277202 C82.6912389,14.0277202 81.0675042,16.1006882 81.0675042,18.8717182 C81.0675042,21.9369667 83.4073513,23.5516327 86.4238166,23.5516327 C89.633282,23.5516327 91.0446419,21.7346914 91.3151402,20.7070481 L94.0611072,20.7070481 L94.0611072,20.7070481 Z" id="Shape" fill="#FFFFFF"></path>
                <path d="M106.84159,22.506308 C106.66722,23.3125801 105.274489,25.790806 101.427154,25.790806 C97.7146965,25.790806 95.4910966,23.58841 95.4910966,20.5047728 C95.4910966,17.7153542 97.4240785,15.274613 101.253529,15.274613 C105.158987,15.3113903 107.034591,17.6050223 107.034591,21.1660574 L97.9278163,21.1660574 C98.0239438,21.7898574 98.3913147,23.8444368 101.348911,23.955476 C102.858634,23.955476 103.863874,23.2758028 104.211871,22.506308 L106.84159,22.506308 L106.84159,22.506308 Z M104.482369,19.4042821 C104.114998,17.7344502 102.916013,17.1113574 101.195405,17.1113574 C99.9382963,17.1113574 98.4881873,17.513079 98.0045692,19.4042821 L104.482369,19.4042821 L104.482369,19.4042821 Z" id="Shape" fill="#FFFFFF"></path>
                <path d="M109.006322,15.6049016 L111.364053,15.6049016 L111.364053,16.8348202 C112.119659,16.1367583 113.144274,15.274613 115.250882,15.274613 C117.416358,15.274613 119.312081,16.1367583 119.312081,19.1468409 L119.312081,25.4612245 L116.91411,25.4612245 L116.91411,19.9913048 C116.91411,18.0456429 116.295616,17.2195676 114.691256,17.2195676 C112.776158,17.2195676 112.002667,17.9727955 111.402802,18.6694429 L111.402802,25.4612245 L109.006322,25.4612245 L109.006322,15.6049016 L109.006322,15.6049016 Z" id="Shape" fill="#FFFFFF"></path>
                <path d="M120.780074,15.9358975 L122.637048,15.9358975 L122.637048,12.724247 L125.034274,12.724247 L125.034274,15.9358975 L128.650605,15.9358975 L128.650605,17.8815595 L125.034274,17.8815595 L125.034274,22.395976 C125.034274,23.0933307 125.324147,23.845144 126.716877,23.845144 C127.180376,23.845144 128.147612,23.7348121 128.766107,23.5700214 L128.766107,25.570142 C127.587241,25.7179586 127.026125,25.7915132 126.175881,25.7915132 C123.892667,25.7915132 122.637048,25.0934513 122.637048,22.9278327 L122.637048,17.8815595 L120.780074,17.8815595 L120.780074,15.9358975 L120.780074,15.9358975 Z" id="Shape" fill="#FFFFFF"></path>
                <path d="M130.485969,15.6049016 L132.882449,15.6049016 L132.882449,17.0731656 L132.940573,17.0731656 C133.463685,16.2654789 134.507674,15.274613 136.577023,15.274613 C136.925019,15.274613 137.176143,15.274613 137.427267,15.3113903 L137.427267,17.7712275 C137.194772,17.7153542 136.751394,17.5873409 135.957038,17.5873409 C132.902569,17.6050223 132.902569,19.5330028 132.882449,20.2296502 L132.882449,25.4612245 L130.485969,25.4612245 L130.485969,15.6049016 L130.485969,15.6049016 Z" id="Shape" fill="#FFFFFF"></path>
                <path d="M149.356016,23.86424 C149.356016,24.5248173 149.394019,25.1853946 149.549016,25.4612245 L147.093667,25.4612245 C147.016914,25.1309359 146.95879,24.79994 146.95879,24.4696513 C145.95355,25.0206039 144.464692,25.7915132 142.413972,25.7915132 C141.042107,25.7915132 138.393012,25.2405606 138.393012,22.818208 C138.393012,19.4969327 143.613703,19.0188275 146.95879,18.8356481 L146.95879,18.3950275 C146.95879,17.6432141 146.243423,17.1113574 144.270947,17.1113574 C142.065976,17.1113574 141.602478,17.8815595 141.466856,18.4134161 L138.973503,18.4134161 C139.553249,15.7336223 142.3171,15.2753202 144.251572,15.2753202 C149.259143,15.2753202 149.356016,17.5873409 149.356016,18.9452728 L149.356016,23.86424 L149.356016,23.86424 Z M146.95879,20.4870914 C145.566059,20.5422574 144.348445,20.7247295 143.226958,20.9821708 C141.738845,21.313874 141.042107,21.7905647 141.021987,22.65271 C141.002613,23.4964667 141.583848,24.0290307 142.761969,24.0290307 C144.580194,24.0290307 146.030303,23.2758028 146.95879,22.7446533 L146.95879,20.4870914 L146.95879,20.4870914 Z" id="Shape" fill="#FFFFFF"></path>
                <rect id="Rectangle-path" fill="#FFFFFF" x="152.015542" y="12.023356" width="2.39722549" height="13.3423889"></rect>
                <g id="Group" transform="translate(14.903485, 0.000000)" fill="#FFC712">
                    <path d="M8.1015342,8.24448596 C7.36232137,8.98427598 6.64993481,9.86834628 4.21321508,9.86834628 C1.80257646,9.86834628 0.159467285,8.30884628 0.159467285,6.2302202 C0.159467285,4.07238142 1.87113249,2.65503992 4.07535785,2.65503992 C6.36229755,2.65503992 8.36234518,3.7866499 8.30720229,6.47634537 L1.26828654,6.47634537 C1.37782715,7.75082111 2.4605653,8.97225263 4.32201052,8.97225263 C6.17078778,8.97225263 6.78704686,8.17941839 7.23936762,7.64614718 L8.1015342,8.24448596 L8.1015342,8.24448596 Z M7.10225556,5.57954446 C6.88317434,4.4620796 5.86973739,3.55254808 4.17148533,3.55254808 C2.54178929,3.55254808 1.62447982,4.33194445 1.30927112,5.57954446 L7.10225556,5.57954446 L7.10225556,5.57954446 Z" id="Shape"></path>
                    <polygon id="Shape" points="11.7588493 6.08593992 8.5814264 2.86368051 10.0054544 2.86368051 12.5122205 5.38575625 14.935527 2.86368051 16.359555 2.86368051 13.1828773 6.08593992 16.688922 9.66182746 15.2365774 9.66182746 12.5122205 6.77622201 9.74538855 9.66182746 8.29453433 9.66182746"></polygon>
                    <path d="M17.7031041,2.86368051 L18.8126685,2.86368051 L18.8126685,3.88990931 C19.8395186,3.09707506 20.5653183,2.65503992 22.2084275,2.65503992 C24.9745142,2.65503992 26.1250632,4.65657507 26.1250632,6.20405172 C26.1250632,7.77557507 25.0840548,9.86834628 22.0169177,9.86834628 C20.5377469,9.86834628 19.7985341,9.41428778 18.8126685,8.7254202 L18.8126685,12.0523535 L17.7031041,12.0523535 L17.7031041,2.86368051 L17.7031041,2.86368051 Z M18.8126685,7.63341657 C19.4699122,8.2826778 20.4006348,8.97225263 21.9483617,8.97225263 C23.4275325,8.97225263 25.0154988,8.2437787 25.0154988,6.17717598 C25.0154988,4.77327235 23.865695,3.55184082 21.9207903,3.55184082 C20.7300018,3.55184082 19.4967385,4.29233811 18.8126685,4.99535081 L18.8126685,7.63341657 L18.8126685,7.63341657 Z" id="Shape"></path>
                    <path d="M34.9442002,8.24448596 C34.2049874,8.98427598 33.493346,9.86834628 31.0558811,9.86834628 C28.6452425,9.86834628 27.0021333,8.30884628 27.0021333,6.2302202 C27.0021333,4.07238142 28.7137985,2.65503992 30.9180239,2.65503992 C33.2049636,2.65503992 35.204266,3.7866499 35.1498683,6.47634537 L28.1109526,6.47634537 C28.2204932,7.75082111 29.3032313,8.97225263 31.1646765,8.97225263 C33.0134538,8.97225263 33.6297129,8.17941839 34.0820336,7.64614718 L34.9442002,8.24448596 L34.9442002,8.24448596 Z M33.9449216,5.57954446 C33.7258404,4.4620796 32.7124034,3.55254808 31.0141513,3.55254808 C29.3844553,3.55254808 28.4671458,4.33194445 28.1519371,5.57954446 L33.9449216,5.57954446 L33.9449216,5.57954446 Z" id="Shape"></path>
                    <path d="M44.5576929,0.211469615 L44.5576929,8.38664446 C44.5576929,8.56840932 44.6269941,9.45247961 44.6404073,9.6611202 L43.6403835,9.6611202 L43.5032714,8.5945778 C42.4220236,9.42631113 41.6954787,9.86834628 40.0523696,9.86834628 C37.2862828,9.86834628 36.136479,7.86681113 36.136479,6.32074899 C36.136479,4.74781112 37.1767422,2.65503992 40.2446245,2.65503992 C41.7230502,2.65503992 42.462263,3.10980568 43.4488737,3.79867325 L43.4488737,0.211469615 L44.5576929,0.211469615 L44.5576929,0.211469615 Z M43.4488737,4.89138414 C42.79163,4.2407084 41.8609074,3.55184082 40.3131805,3.55184082 C38.8347549,3.55184082 37.2452982,4.27960749 37.2452982,6.34691748 C37.2452982,7.75082111 38.3958472,8.97225263 40.3400068,8.97225263 C41.5315404,8.97225263 42.7640586,8.23175535 43.4488737,7.5294499 L43.4488737,4.89138414 L43.4488737,4.89138414 Z" id="Shape"></path>
                    <path d="M47.7500193,1.42087778 L46.4765166,1.42087778 L46.4765166,0.211469615 L47.7500193,0.211469615 L47.7500193,1.42087778 L47.7500193,1.42087778 Z M46.5718989,2.86368051 L47.6814633,2.86368051 L47.6814633,9.6611202 L46.5718989,9.6611202 L46.5718989,2.86368051 L46.5718989,2.86368051 Z" id="Shape"></path>
                    <path d="M56.6921101,8.60660115 C56.6921101,9.01044447 56.7472529,9.29617599 56.815809,9.6611202 L55.7062446,9.6611202 C55.6511017,9.45247961 55.5691325,9.11441113 55.5691325,8.84141022 C54.5281241,9.47864809 53.364162,9.86763903 51.9952769,9.86763903 C50.8171564,9.86763903 49.078665,9.55644628 49.078665,7.80174356 C49.078665,5.44940931 52.7896326,5.35817326 55.5832908,5.045566 L55.5832908,4.78600296 C55.5832908,3.86303357 54.4193287,3.51223448 53.2821928,3.51223448 C51.3782726,3.51223448 50.708361,4.26687688 50.3521677,4.65586781 L49.5168274,4.11057325 C49.9274184,3.62963901 50.708361,2.65433266 53.2009688,2.65433266 C54.8299197,2.65433266 56.6921101,3.10980568 56.6921101,4.85107053 L56.6921101,8.60660115 L56.6921101,8.60660115 Z M55.5832908,5.90488233 C52.3238987,6.20405172 50.1330865,6.48978324 50.1330865,7.80245081 C50.1330865,8.86757871 51.3924309,9.01115172 51.9408792,9.01115172 C53.4878609,9.01115172 54.8709042,8.30884628 55.5832908,7.94602383 L55.5832908,5.90488233 L55.5832908,5.90488233 Z" id="Shape"></path>
                    <path d="M60.3687997,2.62392064 C61.5566074,2.62392064 62.5186273,3.53203765 62.5186273,4.66081861 C62.5186273,5.78747779 61.5566074,6.70125285 60.3687997,6.70125285 C59.180992,6.70125285 58.2241883,5.78747779 58.2241883,4.66081861 C58.2241883,3.53203765 59.180992,2.62392064 60.3687997,2.62392064 L60.3687997,2.62392064 Z M60.3687997,6.38015852 C61.3703139,6.38015852 62.1818086,5.61632178 62.1818086,4.66506214 C62.1818086,3.71450976 61.3703139,2.94501497 60.3687997,2.94501497 C59.3665404,2.94501497 58.5624974,3.71450976 58.5624974,4.66506214 C58.5624974,5.61632178 59.3665404,6.38015852 60.3687997,6.38015852 L60.3687997,6.38015852 Z M60.3471896,4.79307552 L59.8792202,4.79307552 L59.8792202,5.8730558 L59.5416563,5.8730558 L59.5416563,3.44787416 L60.5550933,3.44787416 C61.1296226,3.44787416 61.3822366,3.68268323 61.3822366,4.12047484 C61.3822366,4.54199956 61.0834218,4.74073856 60.7406416,4.79307552 L61.5111518,5.8730558 L61.0953446,5.8730558 L60.3471896,4.79307552 L60.3471896,4.79307552 Z M59.8792202,4.50451498 L60.4366105,4.50451498 C60.7749196,4.50451498 61.0439275,4.4670304 61.0439275,4.11481679 C61.0439275,3.77321203 60.746603,3.73572745 60.4366105,3.73572745 L59.8792202,3.73572745 L59.8792202,4.50451498 L59.8792202,4.50451498 Z" id="Shape"></path>
                </g>
            </g>
        </g>
    </g>
</svg>