<?xml version="1.0" encoding="UTF-8"?>
<svg width="18px" height="18px" viewBox="0 0 18 18" version="1.1" xmlns="http://www.w3.org/2000/svg" xmlns:xlink="http://www.w3.org/1999/xlink">
    <!-- Generator: Sketch 48.1 (47250) - http://www.bohemiancoding.com/sketch -->
    <title>guest relations</title>
    <desc>Created with Sketch.</desc>
    <defs></defs>
    <g id="latest" stroke="none" stroke-width="1" fill="none" fill-rule="evenodd" transform="translate(-82.000000, -473.000000)">
        <g id="left-nav-copy-3" transform="translate(63.000000, 104.000000)">
            <g id="navigation" transform="translate(0.000000, 12.000000)">
                <g id="guest" transform="translate(0.000000, 348.000000)">
                    <g id="guest-relations" transform="translate(16.000000, 6.000000)">
                        <rect id="Rectangle-13-Copy-3" x="0" y="0" width="24" height="24"></rect>
                        <path d="M15.9807692,11.640324 C15.9807692,11.8837138 15.8928787,12.0865385 15.7170976,12.2487981 C15.5413165,12.4110577 15.3317308,12.4921872 15.0883417,12.4921872 L6.448017,12.4921872 L3,15.9807692 L3,3.85186246 C3,3.60847338 3.08113015,3.40564869 3.24338977,3.24338908 C3.40564938,3.08112946 3.60847408,3 3.85186315,3 L15.0883417,3 C15.3317308,3 15.5413165,3.08112946 15.7170976,3.24338908 C15.8928787,3.40564869 15.9807692,3.60847338 15.9807692,3.85186246 L15.9807692,11.640324 Z M19.4287862,6.44801631 C19.6721753,6.44801631 19.875,6.52914646 20.0372596,6.69140608 C20.1995192,6.85366569 20.2806494,7.05649038 20.2806494,7.29987946 L20.2806494,20.2806487 L16.8326324,16.8326317 L7.29988015,16.8326317 C7.05649038,16.8326317 6.85366638,16.7515022 6.69140608,16.5892426 C6.52914715,16.426983 6.448017,16.2241583 6.448017,15.9807692 L6.448017,14.2364778 L17.6844955,14.2364778 L17.6844955,6.44801631 L19.4287862,6.44801631 Z" id="Shape" fill="#1F1F1F" fill-rule="nonzero"></path>
                    </g>
                </g>
            </g>
        </g>
    </g>
</svg>