<?xml version="1.0" encoding="UTF-8"?>
<svg width="17px" height="18px" viewBox="0 0 17 18" version="1.1" xmlns="http://www.w3.org/2000/svg" xmlns:xlink="http://www.w3.org/1999/xlink">
    <!-- Generator: Sketch 48.1 (47250) - http://www.bohemiancoding.com/sketch -->
    <title>reservations</title>
    <desc>Created with Sketch.</desc>
    <defs></defs>
    <g id="latest" stroke="none" stroke-width="1" fill="none" fill-rule="evenodd" transform="translate(-83.000000, -257.000000)">
        <g id="left-nav-copy-3" transform="translate(63.000000, 104.000000)">
            <g id="navigation" transform="translate(0.000000, 12.000000)">
                <g id="reservations" transform="translate(0.000000, 132.000000)">
                    <g transform="translate(16.000000, 6.000000)">
                        <rect id="Rectangle-13-Copy-3" x="0" y="0" width="24" height="24"></rect>
                        <g id="event" transform="translate(4.000000, 3.000000)" fill="#999999" fill-rule="nonzero">
                            <path d="M14.6840822,15.7229571 L14.6840822,6.23076923 L2.31591779,6.23076923 L2.31591779,15.7229571 L14.6840822,15.7229571 Z M12.0278322,0.146034 L13.8125,0.146034 L13.8125,1.89032469 L14.6840822,1.89032469 C15.1544595,1.89032469 15.5694989,2.06610577 15.929199,2.41766862 C16.2888999,2.76923077 16.46875,3.17488015 16.46875,3.63461538 L16.46875,15.7229571 C16.46875,16.1826923 16.2888999,16.5883417 15.929199,16.9399038 C15.5694989,17.291466 15.1544595,17.4672478 14.6840822,17.4672478 L2.31591779,17.4672478 C1.81787092,17.4672478 1.39591463,17.291466 1.05004892,16.9399038 C0.704183208,16.5883417 0.53125,16.1826923 0.53125,15.7229571 L0.53125,3.63461538 C0.53125,3.17488015 0.704183208,2.76923077 1.05004892,2.41766862 C1.39591463,2.06610577 1.81787092,1.89032469 2.31591779,1.89032469 L3.1875,1.89032469 L3.1875,0.146034 L4.97216779,0.146034 L4.97216779,1.89032469 L12.0278322,1.89032469 L12.0278322,0.146034 Z M12.9409178,9.67878623 L12.9409178,14.0192308 L8.5,14.0192308 L8.5,9.67878623 L12.9409178,9.67878623 Z" id="Shape"></path>
                        </g>
                    </g>
                </g>
            </g>
        </g>
    </g>
</svg>