<?xml version="1.0" encoding="UTF-8"?>
<svg width="20px" height="15px" viewBox="0 0 20 15" version="1.1" xmlns="http://www.w3.org/2000/svg" xmlns:xlink="http://www.w3.org/1999/xlink">
    <!-- Generator: Sketch 48.1 (47250) - http://www.bohemiancoding.com/sketch -->
    <title>money</title>
    <desc>Created with Sketch.</desc>
    <defs></defs>
    <g id="latest" stroke="none" stroke-width="1" fill="none" fill-rule="evenodd" transform="translate(-81.000000, -651.000000)">
        <g id="left-nav-copy-3" transform="translate(63.000000, 104.000000)">
            <g id="navigation" transform="translate(0.000000, 12.000000)">
                <g id="revenue" transform="translate(0.000000, 524.000000)">
                    <g id="money" transform="translate(16.000000, 6.000000)">
                        <rect id="Rectangle-13-Copy-8" x="0" y="0" width="24" height="24"></rect>
                        <path d="M5.65957417,5 L22,5 L22,16.2609969 L5.65957417,16.2609969 L5.65957417,5 Z M13.8297871,7.81524923 C14.5957449,7.84457512 15.2340426,8.12316768 15.7446809,8.65102616 C16.2553192,9.17888614 16.5106387,9.83870999 16.5106387,10.6304985 C16.5106387,11.4222877 16.2553192,12.0821115 15.7446809,12.6099708 C15.2340426,13.13783 14.5886524,13.40176 13.8085104,13.40176 C13.0283691,13.40176 12.3829789,13.13783 11.8723406,12.6099708 C11.3617023,12.0821115 11.1063828,11.4222877 11.1063828,10.6304985 C11.1063828,9.83870999 11.3617023,9.17888614 11.8723406,8.65102616 C12.3829789,8.12316768 13.0354608,7.84457512 13.8297871,7.81524923 Z M9.2765957,6.89149539 C9.2765957,7.41935537 9.09929046,7.85923769 8.7446807,8.21114384 C8.39007095,8.56305 7.95744692,8.73900307 7.44680861,8.73900307 L7.44680861,12.5219939 C7.95744692,12.5219939 8.39007095,12.6979477 8.7446807,13.0498538 C9.09929046,13.40176 9.2765957,13.8416423 9.2765957,14.3695015 L18.3404258,14.3695015 C18.3687943,13.8416423 18.553192,13.40176 18.8936175,13.0498538 C19.234043,12.6979477 19.6595746,12.5219939 20.1702129,12.5219939 L20.1702129,8.73900307 C19.6595746,8.73900307 19.234043,8.56305 18.8936175,8.21114384 C18.553192,7.85923769 18.3687943,7.41935537 18.3404258,6.89149539 L9.2765957,6.89149539 Z M2,8.73900307 L3.82978709,8.73900307 L3.82978709,18.1524923 L18.3404258,18.1524923 L18.3404258,20 L2,20 L2,8.73900307 Z" id="Shape" fill="#1F1F1F" fill-rule="nonzero"></path>
                    </g>
                </g>
            </g>
        </g>
    </g>
</svg>