<?xml version="1.0" encoding="UTF-8"?>
<svg width="22px" height="16px" viewBox="0 0 22 16" version="1.1" xmlns="http://www.w3.org/2000/svg" xmlns:xlink="http://www.w3.org/1999/xlink">
    <!-- Generator: Sketch 45 (43475) - http://www.bohemiancoding.com/sketch -->
    <title>rooms &amp; rates</title>
    <desc>Created with Sketch.</desc>
    <defs></defs>
    <g id="Page-1" stroke="none" stroke-width="1" fill="none" fill-rule="evenodd" opacity="0.8">
        <g id="nav---icon-strip" transform="translate(-17.000000, -83.000000)" fill="#FFCB00">
            <g id="icons">
                <g transform="translate(17.000000, 38.000000)">
                    <g id="rooms-&amp;-rates" transform="translate(0.000000, 45.704727)">
                        <path d="M19.6595745,1.31818182 L19.6595745,5.45454545 L18.6297872,5.45454545 C18.7,5.22727273 18.7234043,5.02272727 18.7234043,4.79545455 C18.7234043,3.65909091 17.7638298,2.72727273 16.593617,2.72727273 L13.6680851,2.72727273 C12.4978723,2.72727273 11.5382979,3.68181818 11.5382979,4.79545455 C11.5382979,5.02272727 11.5851064,5.22727273 11.6319149,5.45454545 L10.6489362,5.45454545 C10.7191489,5.22727273 10.7425532,5.02272727 10.7425532,4.79545455 C10.7425532,3.65909091 9.78297872,2.72727273 8.61276596,2.72727273 L5.68723404,2.72727273 C4.51702128,2.72727273 3.55744681,3.68181818 3.55744681,4.79545455 C3.55744681,5.02272727 3.60425532,5.22727273 3.65106383,5.45454545 L2.57446809,5.45454545 L2.57446809,1.31818182 C2.57446809,0.5 3.37021277,0 4.42340426,0 L17.7404255,0 C18.7702128,0 19.6595745,0.5 19.6595745,1.31818182 Z" id="Shape"></path>
                        <path d="M22,8.45454545 C22,7.13636364 20.8531915,6.36363636 19.5191489,6.36363636 L2.48085106,6.36363636 C1.12340426,6.36363636 0,7.15909091 0,8.45454545 L0,15 L22,15 L22,8.45454545 Z" id="Shape"></path>
                    </g>
                </g>
            </g>
        </g>
    </g>
</svg>