<?xml version="1.0" encoding="UTF-8"?>
<svg width="13px" height="18px" viewBox="0 0 13 18" version="1.1" xmlns="http://www.w3.org/2000/svg" xmlns:xlink="http://www.w3.org/1999/xlink">
    <!-- Generator: Sketch 48.1 (47250) - http://www.bohemiancoding.com/sketch -->
    <title>Group 10</title>
    <desc>Created with Sketch.</desc>
    <defs></defs>
    <g id="latest" stroke="none" stroke-width="1" fill="none" fill-rule="evenodd" transform="translate(-85.000000, -517.000000)">
        <g id="left-nav-copy-3" transform="translate(63.000000, 104.000000)">
            <g id="navigation" transform="translate(0.000000, 12.000000)">
                <g id="accounting" transform="translate(0.000000, 392.000000)">
                    <g id="Group-10" transform="translate(16.000000, 6.000000)">
                        <rect id="Rectangle-13-Copy-5" x="0" y="0" width="24" height="24"></rect>
                        <path d="M7.83221508,3 L17.1677849,3 C17.6912748,3 18.1275168,3.16901409 18.4765101,3.50704226 C18.8255034,3.84507044 19,4.2676053 19,4.77464756 L19,19.2253524 C19,19.7323947 18.8255034,20.1549296 18.4765101,20.4929577 C18.1275168,20.8309859 17.6912748,21 17.1677849,21 L7.83221508,21 C7.30872517,21 6.8724832,20.8309859 6.52348992,20.4929577 C6.17449664,20.1549296 6,19.7323947 6,19.2253524 L6,4.77464756 C6,4.2676053 6.17449664,3.84507044 6.52348992,3.50704226 C6.8724832,3.16901409 7.30872517,3 7.83221508,3 Z M7.83221508,4.77464756 L7.83221508,8.40845081 L17.1677849,8.40845081 L17.1677849,4.77464756 L7.83221508,4.77464756 Z M7.83221508,10.1830984 L7.83221508,11.9999996 L9.70805377,11.9999996 L9.70805377,10.1830984 L7.83221508,10.1830984 Z M11.5838925,10.1830984 L11.5838925,11.9999996 L13.4161075,11.9999996 L13.4161075,10.1830984 L11.5838925,10.1830984 Z M15.2919462,10.1830984 L15.2919462,11.9999996 L17.1677849,11.9999996 L17.1677849,10.1830984 L15.2919462,10.1830984 Z M7.83221508,13.8169016 L7.83221508,15.5915492 L9.70805377,15.5915492 L9.70805377,13.8169016 L7.83221508,13.8169016 Z M11.5838925,13.8169016 L11.5838925,15.5915492 L13.4161075,15.5915492 L13.4161075,13.8169016 L11.5838925,13.8169016 Z M15.2919462,13.8169016 L15.2919462,15.5915492 L17.1677849,15.5915492 L17.1677849,13.8169016 L15.2919462,13.8169016 Z M7.83221508,17.4084505 L7.83221508,19.2253524 L9.70805377,19.2253524 L9.70805377,17.4084505 L7.83221508,17.4084505 Z M11.5838925,17.4084505 L11.5838925,19.2253524 L13.4161075,19.2253524 L13.4161075,17.4084505 L11.5838925,17.4084505 Z M15.2919462,17.4084505 L15.2919462,19.2253524 L17.1677849,19.2253524 L17.1677849,17.4084505 L15.2919462,17.4084505 Z" id="Shape" fill="#1F1F1F" fill-rule="nonzero"></path>
                    </g>
                </g>
            </g>
        </g>
    </g>
</svg>