<?xml version="1.0" encoding="UTF-8"?>
<svg width="15px" height="21px" viewBox="0 0 15 21" version="1.1" xmlns="http://www.w3.org/2000/svg" xmlns:xlink="http://www.w3.org/1999/xlink">
    <!-- Generator: Sketch 45 (43475) - http://www.bohemiancoding.com/sketch -->
    <title>accounting</title>
    <desc>Created with Sketch.</desc>
    <defs></defs>
    <g id="Page-1" stroke="none" stroke-width="1" fill="none" fill-rule="evenodd" opacity="0.8">
        <g id="nav---icon-strip" transform="translate(-20.000000, -250.000000)" fill-rule="nonzero" fill="#FFCB00">
            <g id="icons">
                <g transform="translate(17.000000, 38.000000)">
                    <g id="accounting" transform="translate(3.000000, 212.523637)">
                        <path d="M12.9215448,20 L2.17535036,20 C1.09995717,20 0.220263158,19.1084561 0.220263158,18.0187243 L0.220263158,2.23703441 C0.220263158,1.14742326 1.10007621,0.256 2.17535036,0.256 L12.9214258,0.256 C13.9966999,0.256 14.876513,1.14754389 14.876513,2.23703441 L14.876513,18.0187243 C14.876513,19.1084561 13.996819,20 12.9215448,20 L12.9215448,20 Z M2.79244559,10.9414991 L4.80764721,10.9414991 L4.80764721,8.89954878 L2.79244559,8.89954878 L2.79244559,10.9414991 L2.79244559,10.9414991 Z M2.79244559,17.8708373 L4.80764721,17.8708373 L4.80764721,15.8286457 L2.79244559,15.8286457 L2.79244559,17.8708373 L2.79244559,17.8708373 Z M10.2891289,17.8708373 L12.3043305,17.8708373 L12.3043305,15.8286457 L10.2891289,15.8286457 L10.2891289,17.8708373 L10.2891289,17.8708373 Z M6.54072774,17.8708373 L8.55592935,17.8708373 L8.55592935,15.8286457 L6.54072774,15.8286457 L6.54072774,17.8708373 L6.54072774,17.8708373 Z M2.79244559,14.4062285 L4.80764721,14.4062285 L4.80764721,12.364037 L2.79244559,12.364037 L2.79244559,14.4062285 L2.79244559,14.4062285 Z M10.2891289,14.4062285 L12.3043305,14.4062285 L12.3043305,12.364037 L10.2891289,12.364037 L10.2891289,14.4062285 L10.2891289,14.4062285 Z M6.54072774,14.4062285 L8.55592935,14.4062285 L8.55592935,12.364037 L6.54072774,12.364037 L6.54072774,14.4062285 L6.54072774,14.4062285 Z M10.2891289,10.9414991 L12.3043305,10.9414991 L12.3043305,8.89954878 L10.2891289,8.89954878 L10.2891289,10.9414991 L10.2891289,10.9414991 Z M6.54072774,10.9414991 L8.55592935,10.9414991 L8.55592935,8.89954878 L6.54072774,8.89954878 L6.54072774,10.9414991 L6.54072774,10.9414991 Z M1.91596562,5.40237107 L13.1808105,5.40237107 L13.1808105,1.89699081 L1.91596562,1.89699081 L1.91596562,5.40237107 Z" id="Shape"></path>
                    </g>
                </g>
            </g>
        </g>
    </g>
</svg>