<?xml version="1.0" encoding="UTF-8"?>
<svg width="19px" height="19px" viewBox="0 0 19 19" version="1.1" xmlns="http://www.w3.org/2000/svg" xmlns:xlink="http://www.w3.org/1999/xlink">
    <!-- Generator: Sketch 45 (43475) - http://www.bohemiancoding.com/sketch -->
    <title>analytics</title>
    <desc>Created with Sketch.</desc>
    <defs></defs>
    <g id="Page-1" stroke="none" stroke-width="1" fill="none" fill-rule="evenodd" opacity="0.8">
        <g id="nav---icon-strip" transform="translate(-18.000000, -336.000000)" fill-rule="nonzero" fill="#FFCB00">
            <g id="icons">
                <g transform="translate(17.000000, 38.000000)">
                    <g id="analytics" transform="translate(1.000000, 298.933092)">
                        <path d="M7.9947809,2.61399669 L9.34238467,3.95450781 L9.40976486,0 L5.43433374,0.0670255577 L6.78193751,1.40753667 L4.3564867,3.82022196 C4.3564867,3.82022196 4.08635126,4.08893563 4.69315207,4.69178853 C5.29995292,5.29464137 5.56933008,5.02668198 5.56933008,5.02668198 L7.9947809,2.61399669 Z M14.4825143,1.08948929 C14.3781226,1.08948929 14.2934965,1.17527106 14.2934965,1.27971881 L14.2934965,17.5820269 C14.2934965,17.6870878 14.3802686,17.7722565 14.4825143,17.7722565 L17.9160778,17.7722565 C18.0204695,17.7722565 18.1050955,17.6864747 18.1050955,17.5820269 L18.1050955,1.27971881 C18.1050955,1.17465795 18.0183233,1.08948929 17.9160778,1.08948929 L14.4825143,1.08948929 Z M4.95351661,7.53510391 C4.84912497,7.53510391 4.76449882,7.62052984 4.76449882,7.72597101 L4.76449882,17.5813894 C4.76449882,17.6868025 4.85127094,17.7722565 4.95351661,17.7722565 L8.38708009,17.7722565 C8.49147175,17.7722565 8.57609788,17.6868305 8.57609788,17.5813894 L8.57609788,7.72597101 C8.57609788,7.62055803 8.48932578,7.53510391 8.38708009,7.53510391 L4.95351661,7.53510391 Z M9.71801543,4.8810273 C9.61362379,4.8810273 9.52899764,4.96675627 9.52899764,5.07073939 L9.52899764,17.5825445 C9.52899764,17.6873194 9.61576976,17.7722565 9.71801543,17.7722565 L13.1515789,17.7722565 C13.2559706,17.7722565 13.3405967,17.6865276 13.3405967,17.5825445 L13.3405967,5.07073939 C13.3405967,4.96596429 13.2538246,4.8810273 13.1515789,4.8810273 L9.71801543,4.8810273 Z M0.189017788,10.7579112 C0.0846261514,10.7579112 0,10.8415721 0,10.9491658 L0,17.5810019 C0,17.686629 0.0867721198,17.7722565 0.189017788,17.7722565 L3.62258127,17.7722565 C3.72697292,17.7722565 3.81159906,17.6885957 3.81159906,17.5810019 L3.81159906,10.9491658 C3.81159906,10.8435388 3.72482696,10.7579112 3.62258127,10.7579112 L0.189017788,10.7579112 Z" id="Shape"></path>
                    </g>
                </g>
            </g>
        </g>
    </g>
</svg>