<?xml version="1.0" encoding="UTF-8"?>
<svg width="24px" height="24px" viewBox="0 0 24 24" version="1.1" xmlns="http://www.w3.org/2000/svg" xmlns:xlink="http://www.w3.org/1999/xlink">
    <!-- Generator: Sketch 47.1 (45422) - http://www.bohemiancoding.com/sketch -->
    <title>account</title>
    <desc>Created with Sketch.</desc>
    <defs></defs>
    <g id="FINAL" stroke="none" stroke-width="1" fill="none" fill-rule="evenodd">
        <g id="special-cases" transform="translate(-1012.000000, -1068.000000)" fill-rule="nonzero" fill="#FFFFFF">
            <g id="header---1024-copy-11" transform="translate(38.000000, 1050.000000)">
                <g id="accounts" transform="translate(768.000000, 12.000000)">
                    <g id="personal-account" transform="translate(200.000000, 0.000000)">
                        <path d="M18,6 C11.376,6 6,11.376 6,18 C6,24.624 11.376,30 18,30 C24.624,30 30,24.624 30,18 C30,11.376 24.624,6 18,6 Z M18,9.6 C19.992,9.6 21.6,11.208 21.6,13.2 C21.6,15.192 19.992,16.8 18,16.8 C16.008,16.8 14.4,15.192 14.4,13.2 C14.4,11.208 16.008,9.6 18,9.6 Z M18,26.64 C15,26.64 12.348,25.104 10.8,22.776 C10.836,20.388 15.6,19.08 18,19.08 C20.388,19.08 25.164,20.388 25.2,22.776 C23.652,25.104 21,26.64 18,26.64 Z" id="account"></path>
                    </g>
                </g>
            </g>
        </g>
    </g>
</svg>