<?xml version="1.0" encoding="UTF-8"?>
<svg width="30px" height="31px" viewBox="0 0 30 31" version="1.1" xmlns="http://www.w3.org/2000/svg" xmlns:xlink="http://www.w3.org/1999/xlink">
    <!-- Generator: Sketch 47 (45396) - http://www.bohemiancoding.com/sketch -->
    <title>e00d</title>
    <desc>Created with Sketch.</desc>
    <defs></defs>
    <g id="Page-1" stroke="none" stroke-width="1" fill="none" fill-rule="evenodd">
        <g id="e00d" fill-rule="nonzero" fill="#FFFFFF">
            <path d="M29.414062,29.746094 L28.710938,28.076172 C28.652344,27.958984 28.574219,27.866211 28.476562,27.797852 C28.378906,27.729492 28.261719,27.695312 28.125,27.695312 L26.865234,27.695312 L26.865234,8.740234 C26.865234,8.583984 26.806641,8.442383 26.689453,8.31543 C26.572266,8.188477 26.425781,8.125 26.25,8.125 L20.625,8.125 L20.625,1.240234 C20.625,1.083984 20.566406,0.942383 20.449219,0.81543 C20.332031,0.688477 20.185547,0.625 20.009766,0.625 L3.75,0.625 C3.574219,0.625 3.427734,0.688477 3.310547,0.81543 C3.193359,0.942383 3.134766,1.083984 3.134766,1.240234 L3.134766,27.695312 L1.875,27.695312 C1.738281,27.695312 1.621094,27.729492 1.523438,27.797852 C1.425781,27.866211 1.347656,27.958984 1.289062,28.076172 L0.585938,29.746094 C0.546875,29.84375 0.532227,29.946289 0.541992,30.053711 C0.551758,30.161133 0.585938,30.253906 0.644531,30.332031 C0.703125,30.429688 0.776367,30.50293 0.864258,30.551758 C0.952148,30.600586 1.044922,30.625 1.142578,30.625 L28.857422,30.625 C28.955078,30.625 29.047852,30.600586 29.135742,30.551758 C29.223633,30.50293 29.296875,30.429688 29.355469,30.332031 C29.414062,30.253906 29.448242,30.161133 29.458008,30.053711 C29.467773,29.946289 29.453125,29.84375 29.414062,29.746094 Z M10.634766,23.125 L6.884766,23.125 L6.884766,19.375 L10.634766,19.375 L10.634766,23.125 Z M10.634766,15.625 L6.884766,15.625 L6.884766,11.875 L10.634766,11.875 L10.634766,15.625 Z M10.634766,8.125 L6.884766,8.125 L6.884766,4.375 L10.634766,4.375 L10.634766,8.125 Z M16.875,27.285156 L13.125,27.285156 L13.125,19.375 L16.875,19.375 L16.875,27.285156 Z M16.875,15.625 L13.125,15.625 L13.125,11.875 L16.875,11.875 L16.875,15.625 Z M16.875,8.125 L13.125,8.125 L13.125,4.375 L16.875,4.375 L16.875,8.125 Z M23.115234,23.125 L19.365234,23.125 L19.365234,19.375 L23.115234,19.375 L23.115234,23.125 Z M23.115234,15.625 L19.365234,15.625 L19.365234,11.875 L23.115234,11.875 L23.115234,15.625 Z" id="Shape"></path>
        </g>
    </g>
</svg>