<?xml version="1.0" encoding="UTF-8"?>
<svg width="18px" height="18px" viewBox="0 0 18 18" version="1.1" xmlns="http://www.w3.org/2000/svg" xmlns:xlink="http://www.w3.org/1999/xlink">
    <!-- Generator: Sketch 48.1 (47250) - http://www.bohemiancoding.com/sketch -->
    <title>marketing</title>
    <desc>Created with Sketch.</desc>
    <defs></defs>
    <g id="latest" stroke="none" stroke-width="1" fill="none" fill-rule="evenodd" transform="translate(-82.000000, -213.000000)">
        <g id="left-nav-copy-3" transform="translate(63.000000, 104.000000)">
            <g id="navigation" transform="translate(0.000000, 12.000000)">
                <g id="marketing" transform="translate(0.000000, 88.000000)">
                    <g transform="translate(16.000000, 6.000000)">
                        <rect id="Rectangle-13-Copy-2" x="0" y="0" width="24" height="24"></rect>
                        <g id="local-offer" transform="translate(3.000000, 3.000000)" fill="#999999" fill-rule="nonzero">
                            <path d="M3.36147854,4.68659838 C3.71304069,4.68659838 4.01727738,4.55814277 4.27418862,4.30123223 C4.53109985,4.044321 4.65955546,3.74008431 4.65955546,3.38852146 C4.65955546,3.03695931 4.53109985,2.73272262 4.27418862,2.47581138 C4.01727738,2.21890015 3.71304069,2.09044454 3.36147854,2.09044454 C3.00991569,2.09044454 2.705679,2.21890015 2.44876777,2.47581138 C2.19185723,2.73272262 2.06340162,3.03695931 2.06340162,3.38852146 C2.06340162,3.74008431 2.19185723,4.044321 2.44876777,4.30123223 C2.705679,4.55814277 3.00991569,4.68659838 3.36147854,4.68659838 Z M17.1535458,8.66195931 C17.4780651,8.98647854 17.6403247,9.39212723 17.6403247,9.87890608 C17.6403247,10.3656849 17.4780651,10.7713343 17.1535458,11.0958535 L11.0688099,17.1805888 C10.7442907,17.505108 10.338642,17.6673676 9.85186315,17.6673676 C9.36508431,17.6673676 8.95943492,17.505108 8.63491569,17.1805888 L0.846454154,9.39212723 C0.521934923,9.067608 0.359675308,8.66195931 0.359675308,8.17518046 L0.359675308,2.09044454 C0.359675308,1.63070931 0.528696,1.231821 0.866736692,0.893780308 C1.20477738,0.555738923 1.60366569,0.386718923 2.06340162,0.386718923 L8.14813685,0.386718923 C8.63491569,0.386718923 9.04056508,0.548978538 9.36508431,0.873497769 L17.1535458,8.66195931 Z" id="Shape"></path>
                        </g>
                    </g>
                </g>
            </g>
        </g>
    </g>
</svg>