<?xml version="1.0" encoding="UTF-8"?>
<svg width="18px" height="16px" viewBox="0 0 18 16" version="1.1" xmlns="http://www.w3.org/2000/svg" xmlns:xlink="http://www.w3.org/1999/xlink">
    <!-- Generator: Sketch 48.1 (47250) - http://www.bohemiancoding.com/sketch -->
    <title>print</title>
    <desc>Created with Sketch.</desc>
    <defs></defs>
    <g id="Page-1" stroke="none" stroke-width="1" fill="none" fill-rule="evenodd">
        <g id="license-plate-of-big-data-table-page" transform="translate(-1095.000000, -24.000000)">
            <g id="page-actions" transform="translate(875.000000, 20.000000)">
                <g id="print" transform="translate(217.000000, 0.000000)">
                    <rect id="Rectangle-17-Copy" x="0" y="0" width="24" height="24"></rect>
                    <path d="M17.1923077,4.17391304 L17.1923077,7.63858713 L6.80769231,7.63858713 L6.80769231,4.17391304 L17.1923077,4.17391304 Z M18.0441708,12 C18.2875599,12 18.4971457,11.9184779 18.6729268,11.7554351 C18.8487078,11.592391 18.9365984,11.3885871 18.9365984,11.1440216 C18.9365984,10.8994567 18.8487078,10.6888584 18.6729268,10.5122282 C18.4971457,10.3355979 18.2875599,10.2472828 18.0441708,10.2472828 C17.8007811,10.2472828 17.5979571,10.3355979 17.4356968,10.5122282 C17.2734378,10.6888584 17.1923077,10.8994567 17.1923077,11.1440216 C17.1923077,11.3885871 17.2734378,11.592391 17.4356968,11.7554351 C17.5979571,11.9184779 17.8007811,12 18.0441708,12 Z M15.448017,18.0733697 L15.448017,13.7527172 L8.551983,13.7527172 L8.551983,18.0733697 L15.448017,18.0733697 Z M18.0441708,8.53532591 C18.7472958,8.53532591 19.3557692,8.79347826 19.8695917,9.30978226 C20.3834135,9.82608696 20.6403247,10.4374998 20.6403247,11.1440216 L20.6403247,16.3614129 L17.1923077,16.3614129 L17.1923077,19.826087 L6.80769231,19.826087 L6.80769231,16.3614129 L3.35967531,16.3614129 L3.35967531,11.1440216 C3.35967531,10.4374998 3.61658654,9.82608696 4.13040831,9.30978226 C4.64423077,8.79347826 5.25270415,8.53532591 5.95582915,8.53532591 L18.0441708,8.53532591 Z" id="Shape" fill="#404040" fill-rule="nonzero"></path>
                </g>
            </g>
        </g>
    </g>
</svg>