<?xml version="1.0" encoding="UTF-8"?>
<svg width="20px" height="21px" viewBox="0 0 20 21" version="1.1" xmlns="http://www.w3.org/2000/svg" xmlns:xlink="http://www.w3.org/1999/xlink">
    <!-- Generator: Sketch 45 (43475) - http://www.bohemiancoding.com/sketch -->
    <title>property details</title>
    <desc>Created with Sketch.</desc>
    <defs></defs>
    <g id="Page-1" stroke="none" stroke-width="1" fill="none" fill-rule="evenodd" opacity="0.8">
        <g id="nav---icon-strip" transform="translate(-19.000000, -296.000000)" fill-rule="nonzero" fill="#FFCB00">
            <g id="icons">
                <g transform="translate(17.000000, 38.000000)">
                    <g id="property-details" transform="translate(2.000000, 258.228365)">
                        <path d="M19.3862302,15.1468238 L15.9776623,11.7435818 L15.9776623,0 L0,0 L0,15.9776623 L11.73293,15.9776623 L15.1414979,19.3862302 C15.9190775,20.1638098 17.1866387,20.1638098 17.9642183,19.3862302 L19.3755784,17.9748701 C20.1638098,17.1919646 20.1638098,15.9297293 19.3862302,15.1468238 Z M11.9832467,1.99720778 L13.9804545,1.99720778 L13.9804545,3.99441557 L11.9832467,3.99441557 L11.9832467,1.99720778 Z M1.99720778,1.99720778 L9.98603892,1.99720778 L9.98603892,3.99441557 L1.99720778,3.99441557 L1.99720778,1.99720778 Z M9.98603892,9.98603892 L9.98603892,13.9804545 L1.99720778,13.9804545 L1.99720778,5.99162335 L13.9804545,5.99162335 L13.9804545,9.98603892 L9.98603892,9.98603892 Z M16.558184,17.9748701 L11.9832467,13.3999328 L11.9832467,11.9832467 L13.3946069,11.9832467 L17.9801959,16.5688358 L16.558184,17.9748701 Z"></path>
                    </g>
                </g>
            </g>
        </g>
    </g>
</svg>