<?xml version="1.0" encoding="UTF-8"?>
<svg width="17px" height="20px" viewBox="0 0 17 20" version="1.1" xmlns="http://www.w3.org/2000/svg" xmlns:xlink="http://www.w3.org/1999/xlink">
    <!-- Generator: Sketch 45 (43475) - http://www.bohemiancoding.com/sketch -->
    <title>reservations</title>
    <desc>Created with Sketch.</desc>
    <defs></defs>
    <g id="Page-1" stroke="none" stroke-width="1" fill="none" fill-rule="evenodd" opacity="0.8">
        <g id="nav---icon-strip" transform="translate(-20.000000, -168.000000)" fill-rule="nonzero" fill="#FFCB00">
            <g id="icons">
                <g transform="translate(17.000000, 38.000000)">
                    <g id="reservations" transform="translate(3.000000, 130.114182)">
                        <path d="M12.325,3.5 C12.8413143,3.5 13.26,3.069 13.26,2.5375 L13.26,0.9625 C13.26,0.431 12.8413143,0 12.325,0 C11.8086857,0 11.39,0.431 11.39,0.9625 L11.39,2.5375 C11.39,3.069 11.8086857,3.5 12.325,3.5 Z M4.675,3.5 C5.19131429,3.5 5.61,3.069 5.61,2.5375 L5.61,0.9625 C5.61,0.431 5.19131429,0 4.675,0 C4.15868571,0 3.74,0.431 3.74,0.9625 L3.74,2.5375 C3.74,3.069 4.15868571,3.5 4.675,3.5 Z M16.15,1.575 L13.77,1.575 L13.77,2.7125 C13.77,3.534 13.1227857,4.2 12.325,4.2 C11.5272143,4.2 10.8802429,3.53375 10.8802429,2.7125 L10.8802429,1.575 L6.12,1.575 L6.12,2.7125 C6.12,3.534 5.47278571,4.2 4.675,4.2 C3.87721429,4.2 3.23,3.53375 3.23,2.7125 L3.23,1.575 L0.85,1.575 C0.380314286,1.575 0,1.9665 0,2.45 L0,6.125 L17,6.125 L17,2.45 C17,1.96675 16.6196857,1.575 16.15,1.575 Z M0,10.475 L3.74,10.475 L3.74,6.825 L0,6.825 L0,10.475 Z M4.42,10.475 L8.16,10.475 L8.16,6.825 L4.42,6.825 L4.42,10.475 Z M8.84,10.475 L12.58,10.475 L12.58,6.825 L8.84,6.825 L8.84,10.475 Z M13.26,10.475 L17,10.475 L17,6.825 L13.26,6.825 L13.26,10.475 Z M0,14.82525 L3.74,14.82525 L3.74,11.175 L0,11.175 L0,14.82525 Z M4.42,14.82525 L8.16,14.82525 L8.16,11.175 L4.42,11.175 L4.42,14.82525 Z M8.84,14.82525 L12.58,14.82525 L12.58,11.175 L8.84,11.175 L8.84,14.82525 Z M13.26,14.82525 L17,14.82525 L17,11.175 L13.26,11.175 L13.26,14.82525 Z M4.42,19 L8.16,19 L8.16,15.525 L4.42,15.525 L4.42,19 Z M8.84,19 L12.58,19 L12.58,15.525 L8.84,15.525 L8.84,19 Z M0,18.475 C0,18.765 0.228285714,19 0.51,19 L3.74,19 L3.74,15.525 L0,15.525 L0,18.475 Z M13.26,19 L16.49,19 C16.7717143,19 17,18.76525 17,18.475 L17,15.525 L13.26,15.525 L13.26,19 Z" id="Shape"></path>
                    </g>
                </g>
            </g>
        </g>
    </g>
</svg>