<?xml version="1.0" encoding="UTF-8"?>
<svg width="16px" height="18px" viewBox="0 0 16 18" version="1.1" xmlns="http://www.w3.org/2000/svg" xmlns:xlink="http://www.w3.org/1999/xlink">
    <!-- Generator: Sketch 48.1 (47250) - http://www.bohemiancoding.com/sketch -->
    <title>share</title>
    <desc>Created with Sketch.</desc>
    <defs></defs>
    <g id="Page-1" stroke="none" stroke-width="1" fill="none" fill-rule="evenodd">
        <g id="license-plate-of-big-data-table-page" transform="translate(-1144.000000, -24.000000)">
            <g id="page-actions" transform="translate(875.000000, 20.000000)">
                <g id="share" transform="translate(265.000000, 0.000000)">
                    <rect id="Rectangle-17-Copy-2" x="0" y="0" width="24" height="24"></rect>
                    <path d="M17.28125,16.1694705 C18.000651,16.1694705 18.609375,16.4196213 19.1074219,16.9199216 C19.6054688,17.4202219 19.8544918,18.0084128 19.8544918,18.6844948 C19.8544918,19.3876198 19.5985512,19.9893328 19.0866698,20.4896332 C18.5747885,20.9899335 17.9729814,21.2400836 17.28125,21.2400836 C16.5895186,21.2400836 15.9877115,20.9899335 15.4758302,20.4896332 C14.9639488,19.9893328 14.7080082,19.3876198 14.7080082,18.6844948 C14.7080082,18.4140622 14.7218426,18.2247589 14.7495115,18.1165858 L8.48242188,14.5468743 C7.95670608,15.0066102 7.34798142,15.2364778 6.65625,15.2364778 C5.93684896,15.2364778 5.31429054,14.9795666 4.78857404,14.4657448 C4.26285825,13.9519231 4,13.343449 4,12.640324 C4,11.937199 4.26285825,11.3287256 4.78857404,10.8149038 C5.31429054,10.3010814 5.93684896,10.0441702 6.65625,10.0441702 C7.34798142,10.0441702 7.95670608,10.2740385 8.48242188,10.7337737 L14.7080082,7.20462723 C14.6526689,6.93419454 14.625,6.73136985 14.625,6.59615385 C14.625,5.89302815 14.8878583,5.28455477 15.413574,4.770733 C15.9392905,4.25691054 16.561849,4 17.28125,4 C18.000651,4 18.6232095,4.25691054 19.148926,4.770733 C19.6746417,5.28455477 19.9375,5.89302815 19.9375,6.59615385 C19.9375,7.29927815 19.6746417,7.90775223 19.148926,8.421574 C18.6232095,8.93539646 18.000651,9.19230769 17.28125,9.19230769 C16.6171875,9.19230769 16.0084635,8.94891792 15.4550781,8.46213908 L9.22949183,12.0318506 C9.28483108,12.3022833 9.3125,12.505108 9.3125,12.640324 C9.3125,12.7755407 9.28483108,12.9783654 9.22949183,13.2487974 L15.5380856,16.8185089 C16.0361332,16.3858166 16.6171875,16.1694705 17.28125,16.1694705 Z" id="Shape" fill="#404040" fill-rule="nonzero"></path>
                </g>
            </g>
        </g>
    </g>
</svg>