<?xml version="1.0" encoding="UTF-8"?>
<svg width="18px" height="18px" viewBox="0 0 18 18" version="1.1" xmlns="http://www.w3.org/2000/svg" xmlns:xlink="http://www.w3.org/1999/xlink">
    <!-- Generator: Sketch 48.1 (47250) - http://www.bohemiancoding.com/sketch -->
    <title>Group 3</title>
    <desc>Created with Sketch.</desc>
    <defs></defs>
    <g id="latest" stroke="none" stroke-width="1" fill="none" fill-rule="evenodd" transform="translate(-82.000000, -693.000000)">
        <g id="left-nav-copy-3" transform="translate(63.000000, 104.000000)">
            <g id="navigation" transform="translate(0.000000, 12.000000)">
                <g id="admin" transform="translate(0.000000, 568.000000)">
                    <g id="Group-3" transform="translate(16.000000, 6.000000)">
                        <rect id="Rectangle-13-Copy-8" x="0" y="0" width="24" height="24"></rect>
                        <path d="M17.950101,3.26641026 C16.3325157,2.6921676 14.4604797,3.04467713 13.165947,4.33922551 C11.8713705,5.6337564 11.5189027,7.50581909 12.0931255,9.12337965 L3.5783042,17.6382248 C2.80723558,18.4092499 2.80723558,19.6507061 3.57828233,20.4217312 C4.3493072,21.1927563 5.59074143,21.1927563 6.36178816,20.4217312 L14.8766311,11.906886 C16.4941945,12.4811308 18.3662523,12.1286191 19.6607632,10.8340707 C20.9553396,9.53953768 21.3078294,7.66747498 20.7335847,6.04991442 L18.8875951,7.89592856 C18.1165703,8.66696019 16.8751144,8.66696456 16.1040906,7.89593074 C15.3330657,7.12489911 15.3330439,5.8834429 16.1040687,5.11241346 L17.950101,3.26641026 Z" id="Shape" fill="#999999" fill-rule="nonzero"></path>
                    </g>
                </g>
            </g>
        </g>
    </g>
</svg>