<?xml version="1.0" encoding="UTF-8"?>
<svg width="24px" height="18px" viewBox="0 0 24 18" version="1.1" xmlns="http://www.w3.org/2000/svg" xmlns:xlink="http://www.w3.org/1999/xlink">
    <!-- Generator: Sketch 48.1 (47250) - http://www.bohemiancoding.com/sketch -->
    <title>hoteledit</title>
    <desc>Created with Sketch.</desc>
    <defs></defs>
    <g id="latest" stroke="none" stroke-width="1" fill="none" fill-rule="evenodd" transform="translate(-81.000000, -561.000000)">
        <g id="left-nav-copy-3" transform="translate(63.000000, 104.000000)">
            <g id="navigation" transform="translate(0.000000, 12.000000)">
                <g id="property" transform="translate(0.000000, 436.000000)">
                    <g id="hoteledit" transform="translate(16.000000, 6.000000)">
                        <rect id="Rectangle-13-Copy-6" x="0" y="0" width="24" height="24"></rect>
                        <path d="M10.3299632,20.4193548 L2.35500907,20.4193548 C2.29756437,20.4193548 2.24299143,20.405179 2.19129143,20.3768272 C2.13959084,20.3484755 2.09650731,20.3059479 2.06204025,20.2492438 C2.02757378,20.2038809 2.0074679,20.1500127 2.00172319,20.0876386 C1.99597907,20.0252646 2.00459554,19.9657258 2.02757378,19.9090223 L2.44117613,18.9393902 C2.47564319,18.8713455 2.52159907,18.8174774 2.57904437,18.777785 C2.63648907,18.7380921 2.7054226,18.7182457 2.78584554,18.7182457 L3.52688437,18.7182457 L3.52688437,3.35723265 C3.52688437,3.26650684 3.56135084,3.1842869 3.63028496,3.11057226 C3.69921848,3.03685761 3.78538613,3 3.88878672,3 L13.453355,3 C13.5567555,3 13.6429226,3.03685761 13.7118567,3.11057226 C13.7807902,3.1842869 13.8152573,3.26650684 13.8152573,3.35723265 L13.8152573,7.35483871 L17.1240808,7.35483871 C17.2274814,7.35483871 17.3136491,7.39169632 17.3825826,7.46541097 C17.4515167,7.53912561 17.4859832,7.62134555 17.4859832,7.71207135 L17.4859832,8.82975305 L15.2801008,11.0579857 L15.2801008,9.53225806 L13.0742185,9.53225806 L13.0742185,11.7096774 L14.6349459,11.7096774 L11.609375,14.7659038 L11.609375,13.8870968 L9.4034926,13.8870968 L9.4034926,18.4800906 L10.3299632,18.4800906 L10.3299632,20.4193548 Z M7.93864907,16.0645161 L7.93864907,13.8870968 L5.73276672,13.8870968 L5.73276672,16.0645161 L7.93864907,16.0645161 Z M7.93864907,11.7096774 L7.93864907,9.53225806 L5.73276672,9.53225806 L5.73276672,11.7096774 L7.93864907,11.7096774 Z M7.93864907,7.35483871 L7.93864907,5.17741935 L5.73276672,5.17741935 L5.73276672,7.35483871 L7.93864907,7.35483871 Z M11.609375,11.7096774 L11.609375,9.53225806 L9.4034926,9.53225806 L9.4034926,11.7096774 L11.609375,11.7096774 Z M11.609375,7.35483871 L11.609375,5.17741935 L9.4034926,5.17741935 L9.4034926,7.35483871 L11.609375,7.35483871 Z" id="Shape" fill="#999999" fill-rule="nonzero"></path>
                        <path d="M25.074219,10.6290758 L23.9316405,11.8213317 L21.5878905,9.37567948 L22.730469,8.18342365 C22.847656,8.06114157 22.9941405,8 23.169922,8 C23.345703,8 23.4921875,8.06114157 23.609375,8.18342365 L25.074219,9.71195652 C25.191406,9.83423913 25.25,9.98709252 25.25,10.1705162 C25.25,10.3539403 25.191406,10.5067937 25.074219,10.6290758 Z M14,17.2934783 L20.9140625,10.0788043 L23.2578125,12.5244565 L16.34375,19.7391304 L14,19.7391304 L14,17.2934783 Z" id="Shape" fill="#999999" fill-rule="nonzero"></path>
                    </g>
                </g>
            </g>
        </g>
    </g>
</svg>