<?xml version="1.0" encoding="UTF-8"?>
<svg width="18px" height="13px" viewBox="0 0 18 13" version="1.1" xmlns="http://www.w3.org/2000/svg" xmlns:xlink="http://www.w3.org/1999/xlink">
    <!-- Generator: Sketch 48.1 (47250) - http://www.bohemiancoding.com/sketch -->
    <title>rooms&amp;rates</title>
    <desc>Created with Sketch.</desc>
    <defs></defs>
    <g id="latest" stroke="none" stroke-width="1" fill="none" fill-rule="evenodd" transform="translate(-82.000000, -171.000000)">
        <g id="left-nav-copy-3" transform="translate(63.000000, 104.000000)">
            <g id="navigation" transform="translate(0.000000, 12.000000)">
                <g id="rooms" transform="translate(0.000000, 44.000000)">
                    <g id="rooms&amp;rates" transform="translate(16.000000, 6.000000)">
                        <rect id="Rectangle-13-Copy" x="0" y="0" width="24" height="24"></rect>
                        <g id="hotel" transform="translate(3.000000, 5.000000)" fill="#999999" fill-rule="nonzero">
                            <path d="M14.6124444,1.93730485 C15.4913503,1.93730485 16.2509766,2.2610354 16.8913228,2.90849585 C17.5316683,3.55595695 17.8518414,4.3240236 17.8518414,5.21269515 L17.8518414,12.5251952 L16.2321429,12.5251952 L16.2321429,10.0876952 L1.76785714,10.0876952 L1.76785714,12.5251952 L0.148158643,12.5251952 L0.148158643,0.33769515 L1.76785714,0.33769515 L1.76785714,7.65019515 L8.20898421,7.65019515 L8.20898421,1.93730485 L14.6124444,1.93730485 Z M4.96958721,6.81230485 C4.31668543,6.81230485 3.75167443,6.57109375 3.27455357,6.0886722 C2.79743271,5.60625 2.55887293,5.0349611 2.55887293,4.37480485 C2.55887293,3.7146486 2.79743271,3.1433597 3.27455357,2.6609375 C3.75167443,2.1785153 4.31668543,1.93730485 4.96958721,1.93730485 C5.622489,1.93730485 6.1875,2.1785153 6.66462086,2.6609375 C7.14174107,3.1433597 7.3803015,3.7146486 7.3803015,4.37480485 C7.3803015,5.0349611 7.14174107,5.60625 6.66462086,6.0886722 C6.1875,6.57109375 5.622489,6.81230485 4.96958721,6.81230485 Z" id="Shape"></path>
                        </g>
                    </g>
                </g>
            </g>
        </g>
    </g>
</svg>